<?xml version="1.0" encoding="UTF-8" standalone="no"?>
<!-- Created with Inkscape (http://www.inkscape.org/) -->

<svg
   xmlns:dc="http://purl.org/dc/elements/1.1/"
   xmlns:cc="http://creativecommons.org/ns#"
   xmlns:rdf="http://www.w3.org/1999/02/22-rdf-syntax-ns#"
   xmlns:svg="http://www.w3.org/2000/svg"
   xmlns="http://www.w3.org/2000/svg"
   xmlns:sodipodi="http://sodipodi.sourceforge.net/DTD/sodipodi-0.dtd"
   xmlns:inkscape="http://www.inkscape.org/namespaces/inkscape"
   width="130.48444mm"
   height="122.44128mm"
   viewBox="0 0 462.34643 433.84704"
   id="svg12329"
   version="1.1"
   inkscape:version="0.91 r13725"
   sodipodi:docname="biohazard.svg"
   inkscape:export-filename="/home/algot/Documents/runeman.org/clipart/2018/biohazard-label.png"
   inkscape:export-xdpi="25.714285"
   inkscape:export-ydpi="25.714285">
  <title
     id="title12433">Biohazard</title>
  <defs
     id="defs12331" />
  <sodipodi:namedview
     id="base"
     pagecolor="#ffffff"
     bordercolor="#666666"
     borderopacity="1.0"
     inkscape:pageopacity="0.0"
     inkscape:pageshadow="2"
     inkscape:zoom="0.98994949"
     inkscape:cx="-15.561261"
     inkscape:cy="168.07154"
     inkscape:document-units="px"
     inkscape:current-layer="layer1"
     showgrid="false"
     inkscape:window-width="1366"
     inkscape:window-height="712"
     inkscape:window-x="0"
     inkscape:window-y="0"
     inkscape:window-maximized="1"
     fit-margin-top="0"
     fit-margin-left="0"
     fit-margin-right="0"
     fit-margin-bottom="0">
    <inkscape:grid
       type="xygrid"
       id="grid12391"
       originx="-225.58722"
       originy="-266.78081" />
  </sodipodi:namedview>
  <metadata
     id="metadata12334">
    <rdf:RDF>
      <cc:Work
         rdf:about="">
        <dc:format>image/svg+xml</dc:format>
        <dc:type
           rdf:resource="http://purl.org/dc/dcmitype/StillImage" />
        <dc:title>Biohazard</dc:title>
        <dc:date>2018-07-29</dc:date>
        <dc:creator>
          <cc:Agent>
            <dc:title>Algot  Runeman</dc:title>
          </cc:Agent>
        </dc:creator>
        <dc:rights>
          <cc:Agent>
            <dc:title>Algot Runeman</dc:title>
          </cc:Agent>
        </dc:rights>
        <dc:publisher>
          <cc:Agent>
            <dc:title>runeman.org</dc:title>
          </cc:Agent>
        </dc:publisher>
        <dc:identifier>biohazard.svg</dc:identifier>
        <cc:license
           rdf:resource="http://creativecommons.org/publicdomain/zero/1.0/" />
      </cc:Work>
      <cc:License
         rdf:about="http://creativecommons.org/publicdomain/zero/1.0/">
        <cc:permits
           rdf:resource="http://creativecommons.org/ns#Reproduction" />
        <cc:permits
           rdf:resource="http://creativecommons.org/ns#Distribution" />
        <cc:permits
           rdf:resource="http://creativecommons.org/ns#DerivativeWorks" />
      </cc:License>
    </rdf:RDF>
  </metadata>
  <g
     inkscape:label="Layer 1"
     inkscape:groupmode="layer"
     id="layer1"
     transform="translate(-225.58722,-351.73438)">
    <g
       id="g3513"
       transform="translate(19.52035,0)">
      <path
         id="path12348"
         transform="translate(206.06645,348.39844)"
         d="M 224.17188,3.3359375 A 125,125 0 0 0 106.41406,128.07812 a 125,125 0 0 0 99.78516,122.29102 25,25 0 0 1 -0.0254,-0.7207 25,25 0 0 1 20.36133,-24.54883 l 0,-17.98047 A 102.14286,102.14286 0 0 1 129.27148,105.2207 102.14286,102.14286 0 0 1 224.17188,3.3359375 Z m 17.43945,0.2519531 A 102.14286,102.14286 0 0 1 333.55859,105.2207 102.14286,102.14286 0 0 1 235.81055,207.20703 l 0,17.88867 a 25,25 0 0 1 20.36328,24.55274 25,25 0 0 1 -0.0488,0.95508 A 125,125 0 0 0 356.41406,128.07812 125,125 0 0 0 241.61133,3.5878906 Z"
         style="opacity:1;fill:#000000;fill-opacity:1;stroke:none;stroke-width:6;stroke-linecap:round;stroke-linejoin:bevel;stroke-miterlimit:4;stroke-dasharray:none;stroke-dashoffset:0;stroke-opacity:1"
         inkscape:connector-curvature="0" />
      <path
         id="path12366"
         transform="translate(206.06645,348.39844)"
         d="M 130.81641,187.06836 A 125,125 0 0 0 62.419922,203.67578 125,125 0 0 0 12.009766,365.34375 102.14286,102.14286 0 0 1 54.052734,234.89844 102.14286,102.14286 0 0 1 186.94336,262.42578 l 19.28906,-11.13476 a 25,25 0 0 1 -0.0586,-1.64258 25,25 0 0 1 11.69336,-21.15235 125,125 0 0 0 -87.05078,-41.42773 z m 77.89062,73.50391 -16.49609,9.52343 a 102.14286,102.14286 0 0 1 1.37109,2.19141 102.14286,102.14286 0 0 1 -37.38672,139.5293 A 102.14286,102.14286 0 0 1 20.5,380.55859 a 125,125 0 0 0 166.91992,39.625 125,125 0 0 0 55.68946,-148.5957 25,25 0 0 1 -11.93555,3.06055 25,25 0 0 1 -22.4668,-14.07617 z"
         style="opacity:1;fill:#000000;fill-opacity:1;stroke:none;stroke-width:6;stroke-linecap:round;stroke-linejoin:bevel;stroke-miterlimit:4;stroke-dasharray:none;stroke-dashoffset:0;stroke-opacity:1"
         inkscape:connector-curvature="0" />
      <path
         id="path12368"
         transform="translate(206.06645,348.39844)"
         d="m 340.33594,187.26562 a 125,125 0 0 0 -95.58008,41.42383 25,25 0 0 1 11.41797,20.95899 25,25 0 0 1 -0.082,1.6289 l 19.39648,11.19922 a 102.14286,102.14286 0 0 1 132.7656,-27.27539 102.14286,102.14286 0 0 1 40.77734,133.14453 125,125 0 0 0 -49.14453,-164.36914 125,125 0 0 0 -59.55078,-16.71094 z m -86.70703,73.30079 a 25,25 0 0 1 -22.45508,14.08203 25,25 0 0 1 -11.95508,-3.04492 125,125 0 0 0 55.66797,148.8789 125,125 0 0 0 165.21289,-37.17578 102.14286,102.14286 0 0 1 -133.99023,28.8125 102.14286,102.14286 0 0 1 -37.38477,-139.53125 102.14286,102.14286 0 0 1 1.55664,-2.4082 l -16.65234,-9.61328 z"
         style="opacity:1;fill:#000000;fill-opacity:1;stroke:none;stroke-width:6;stroke-linecap:round;stroke-linejoin:bevel;stroke-miterlimit:4;stroke-dasharray:none;stroke-dashoffset:0;stroke-opacity:1"
         inkscape:connector-curvature="0" />
      <path
         inkscape:connector-curvature="0"
         id="path3493"
         d="m 433.21918,482.19922 a 115,115 0 0 0 -74.75196,27.66602 95,95 0 0 0 25.00782,24.67968 80,80 0 0 1 49.74414,-17.3457 80,80 0 0 1 52.39258,19.61133 95,95 0 0 0 26.1289,-23.50977 115,115 0 0 0 -78.52148,-31.10156 z m -82.1543,34.56055 a 115,115 0 0 0 -28.52734,49.26172 105,105 0 0 1 33.91797,8.99023 80,80 0 0 1 19.52539,-33.58789 105,105 0 0 1 -24.91602,-24.66406 z m 167.7832,3.85742 a 105,105 0 0 1 -25.97656,23.42383 80,80 0 0 1 18.35742,35.69922 105,105 0 0 1 33.07422,-11.55664 115,115 0 0 0 -25.45508,-47.56641 z m -198.5664,55.25977 a 115,115 0 0 0 -2.0625,21.32226 115,115 0 0 0 82.46094,110.21875 95,95 0 0 0 7.33789,-34.36328 80,80 0 0 1 -54.79883,-75.85547 80,80 0 0 1 1.05273,-12.18359 95,95 0 0 0 -33.99023,-9.13867 z m 226.14453,2 a 95,95 0 0 0 -33.60352,12.5664 80,80 0 0 1 0.39649,6.75586 80,80 0 0 1 -46.00391,72.32227 95,95 0 0 0 -0.10156,2.02929 95,95 0 0 0 6.08984,33.32227 115,115 0 0 0 75.01563,-107.67383 115,115 0 0 0 -1.79297,-19.32226 z m -89.21875,95.54882 a 80,80 0 0 1 -23.98828,3.77344 80,80 0 0 1 -15.25781,-1.5 105,105 0 0 1 -7.50586,34.10352 115,115 0 0 0 22.76367,2.39648 115,115 0 0 0 30.54101,-4.25586 105,105 0 0 1 -6.55273,-34.51758 z"
         style="opacity:1;fill:#000000;fill-opacity:1;stroke:none;stroke-width:6;stroke-linecap:round;stroke-linejoin:bevel;stroke-miterlimit:4;stroke-dasharray:none;stroke-dashoffset:0;stroke-opacity:1" />
    </g>
  </g>
</svg>
